<svg width="20" height="20" viewBox="0 0 20 20" fill="none" xmlns="http://www.w3.org/2000/svg">
<path d="M19.1574 7.41964C19.0998 7.24983 18.9936 7.10061 18.8522 6.99043C18.7107 6.88024 18.54 6.81389 18.3613 6.79959L13.1321 6.38408L10.8693 1.37506C10.7972 1.21373 10.68 1.07671 10.5318 0.980522C10.3836 0.884337 10.2107 0.833105 10.034 0.833008C9.8573 0.832911 9.68435 0.883954 9.53603 0.979976C9.3877 1.076 9.27033 1.2129 9.19809 1.37415L6.93528 6.38408L1.70612 6.79959C1.53043 6.8135 1.36247 6.87774 1.22233 6.98462C1.0822 7.0915 0.975817 7.23648 0.915921 7.40224C0.856026 7.56799 0.845152 7.74749 0.884599 7.91926C0.924047 8.09103 1.01215 8.2478 1.13836 8.37081L5.00266 12.1379L3.63599 18.0559C3.59449 18.235 3.60779 18.4225 3.67416 18.594C3.74053 18.7655 3.85691 18.913 4.0082 19.0175C4.15949 19.1221 4.3387 19.1787 4.52257 19.1801C4.70644 19.1815 4.88649 19.1276 5.03935 19.0254L10.0337 15.6958L15.028 19.0254C15.1843 19.1291 15.3685 19.1825 15.556 19.1784C15.7435 19.1743 15.9253 19.1129 16.0768 19.0024C16.2283 18.8919 16.3424 18.7377 16.4037 18.5604C16.4649 18.3832 16.4705 18.1914 16.4195 18.0109L14.7419 12.1406L18.9024 8.39649C19.1749 8.15067 19.2748 7.76727 19.1574 7.41964V7.41964Z" fill="#F3CD03"/>
</svg>
