<svg width="23" height="22" viewBox="0 0 23 22" fill="none" xmlns="http://www.w3.org/2000/svg">
<path d="M6.03288 13.1374L4.6662 19.0554C4.62388 19.2346 4.63658 19.4224 4.70265 19.5943C4.76872 19.7662 4.88509 19.9141 5.03655 20.0188C5.18801 20.1235 5.36753 20.1801 5.55165 20.1812C5.73578 20.1823 5.91596 20.1278 6.06865 20.0249L11.063 16.6954L16.0573 20.0249C16.2136 20.1287 16.3978 20.1821 16.5853 20.178C16.7728 20.1739 16.9545 20.1124 17.1061 20.0019C17.2576 19.8915 17.3717 19.7372 17.433 19.56C17.4942 19.3827 17.4997 19.191 17.4488 19.0105L15.7712 13.1402L19.9317 9.39603C20.065 9.27605 20.1601 9.11963 20.2054 8.94614C20.2507 8.77264 20.2442 8.58967 20.1866 8.41986C20.129 8.25004 20.0229 8.10083 19.8815 7.99067C19.74 7.88051 19.5693 7.81423 19.3906 7.80004L14.1614 7.38362L11.8986 2.3746C11.8264 2.21331 11.7091 2.07635 11.5609 1.98025C11.4126 1.88415 11.2397 1.83301 11.063 1.83301C10.8863 1.83301 10.7134 1.88415 10.5651 1.98025C10.4168 2.07635 10.2995 2.21331 10.2274 2.3746L7.96457 7.38362L2.73542 7.79913C2.55973 7.81305 2.39177 7.87729 2.25163 7.98416C2.11149 8.09104 2.00511 8.23602 1.94522 8.40178C1.88532 8.56753 1.87445 8.74703 1.9139 8.9188C1.95334 9.09057 2.04144 9.24734 2.16765 9.37035L6.03288 13.1374V13.1374ZM8.64975 9.16947C8.81347 9.15658 8.9707 9.09987 9.10497 9.0053C9.23924 8.91073 9.3456 8.78179 9.41289 8.63198L11.063 4.98047L12.7131 8.63198C12.7804 8.78179 12.8867 8.91073 13.021 9.0053C13.1553 9.09987 13.3125 9.15658 13.4762 9.16947L17.1195 9.4584L14.1192 12.1587C13.8587 12.3936 13.7551 12.7549 13.8505 13.0925L14.9998 17.1146L11.573 14.8297C11.4226 14.7288 11.2455 14.6749 11.0644 14.6749C10.8832 14.6749 10.7062 14.7288 10.5558 14.8297L6.97488 17.2173L7.93797 13.0475C7.97329 12.8942 7.96855 12.7343 7.92421 12.5833C7.87988 12.4323 7.79743 12.2953 7.68482 12.1853L4.89826 9.46849L8.64975 9.16947V9.16947Z" fill="#F3CD03"/>
</svg>
