<svg width="131" height="22" viewBox="0 0 131 22" fill="none" xmlns="http://www.w3.org/2000/svg">
<g clip-path="url(#clip0_3369_20)">
<path d="M20.1301 8.41964C20.0724 8.24983 19.9663 8.10061 19.8248 7.99043C19.6833 7.88024 19.5127 7.81389 19.3339 7.79959L14.1048 7.38408L11.842 2.37506C11.7699 2.21373 11.6527 2.07671 11.5045 1.98052C11.3562 1.88434 11.1833 1.8331 11.0066 1.83301C10.83 1.83291 10.657 1.88395 10.5087 1.97998C10.3604 2.076 10.243 2.2129 10.1707 2.37415L7.90793 7.38408L2.67878 7.79959C2.50309 7.8135 2.33513 7.87774 2.19499 7.98462C2.05485 8.0915 1.94847 8.23648 1.88858 8.40224C1.82868 8.56799 1.81781 8.74749 1.85726 8.91926C1.8967 9.09103 1.9848 9.2478 2.11101 9.37081L5.97532 13.1379L4.60864 19.0559C4.56714 19.235 4.58044 19.4225 4.64682 19.594C4.71319 19.7655 4.82957 19.913 4.98086 20.0175C5.13214 20.1221 5.31135 20.1787 5.49523 20.1801C5.6791 20.1815 5.85915 20.1276 6.01201 20.0254L11.0064 16.6958L16.0007 20.0254C16.1569 20.1291 16.3412 20.1825 16.5287 20.1784C16.7162 20.1743 16.8979 20.1129 17.0494 20.0024C17.201 19.8919 17.3151 19.7377 17.3763 19.5604C17.4376 19.3832 17.4431 19.1914 17.3921 19.0109L15.7145 13.1406L19.8751 9.39649C20.1475 9.15067 20.2475 8.76727 20.1301 8.41964V8.41964Z" fill="#F3CD03"/>
<path d="M47.1457 8.41964C47.0881 8.24983 46.9819 8.10061 46.8404 7.99043C46.699 7.88024 46.5283 7.81389 46.3495 7.79959L41.1204 7.38408L38.8576 2.37506C38.7855 2.21373 38.6683 2.07671 38.5201 1.98052C38.3719 1.88434 38.199 1.8331 38.0223 1.83301C37.8456 1.83291 37.6726 1.88395 37.5243 1.97998C37.376 2.076 37.2586 2.2129 37.1864 2.37415L34.9236 7.38408L29.6944 7.79959C29.5187 7.8135 29.3508 7.87774 29.2106 7.98462C29.0705 8.0915 28.9641 8.23648 28.9042 8.40224C28.8443 8.56799 28.8334 8.74749 28.8729 8.91926C28.9123 9.09103 29.0004 9.2478 29.1266 9.37081L32.9909 13.1379L31.6243 19.0559C31.5828 19.235 31.5961 19.4225 31.6624 19.594C31.7288 19.7655 31.8452 19.913 31.9965 20.0175C32.1478 20.1221 32.327 20.1787 32.5109 20.1801C32.6947 20.1815 32.8748 20.1276 33.0276 20.0254L38.022 16.6958L43.0163 20.0254C43.1726 20.1291 43.3568 20.1825 43.5443 20.1784C43.7318 20.1743 43.9135 20.1129 44.0651 20.0024C44.2166 19.8919 44.3307 19.7377 44.392 19.5604C44.4532 19.3832 44.4587 19.1914 44.4078 19.0109L42.7301 13.1406L46.8907 9.39649C47.1631 9.15067 47.2631 8.76727 47.1457 8.41964V8.41964Z" fill="#F3CD03"/>
<path d="M74.1574 8.41964C74.0998 8.24983 73.9936 8.10061 73.8522 7.99043C73.7107 7.88024 73.54 7.81389 73.3613 7.79959L68.1321 7.38408L65.8693 2.37506C65.7972 2.21373 65.68 2.07671 65.5318 1.98052C65.3836 1.88434 65.2107 1.8331 65.034 1.83301C64.8573 1.83291 64.6844 1.88395 64.536 1.97998C64.3877 2.076 64.2703 2.2129 64.1981 2.37415L61.9353 7.38408L56.7061 7.79959C56.5304 7.8135 56.3625 7.87774 56.2223 7.98462C56.0822 8.0915 55.9758 8.23648 55.9159 8.40224C55.856 8.56799 55.8452 8.74749 55.8846 8.91926C55.924 9.09103 56.0121 9.2478 56.1384 9.37081L60.0027 13.1379L58.636 19.0559C58.5945 19.235 58.6078 19.4225 58.6742 19.594C58.7405 19.7655 58.8569 19.913 59.0082 20.0175C59.1595 20.1221 59.3387 20.1787 59.5226 20.1801C59.7064 20.1815 59.8865 20.1276 60.0394 20.0254L65.0337 16.6958L70.028 20.0254C70.1843 20.1291 70.3685 20.1825 70.556 20.1784C70.7435 20.1743 70.9253 20.1129 71.0768 20.0024C71.2283 19.8919 71.3424 19.7377 71.4037 19.5604C71.4649 19.3832 71.4705 19.1914 71.4195 19.0109L69.7419 13.1406L73.9024 9.39649C74.1749 9.15067 74.2748 8.76727 74.1574 8.41964V8.41964Z" fill="#F3CD03"/>
<path d="M101.171 8.41964C101.113 8.24983 101.007 8.10061 100.866 7.99043C100.724 7.88024 100.554 7.81389 100.375 7.79959L95.1458 7.38408L92.883 2.37506C92.8109 2.21373 92.6937 2.07671 92.5455 1.98052C92.3972 1.88434 92.2244 1.8331 92.0477 1.83301C91.871 1.83291 91.698 1.88395 91.5497 1.97998C91.4014 2.076 91.284 2.2129 91.2118 2.37415L88.9489 7.38408L83.7198 7.79959C83.5441 7.8135 83.3761 7.87774 83.236 7.98462C83.0959 8.0915 82.9895 8.23648 82.9296 8.40224C82.8697 8.56799 82.8588 8.74749 82.8983 8.91926C82.9377 9.09103 83.0258 9.2478 83.152 9.37081L87.0163 13.1379L85.6497 19.0559C85.6082 19.235 85.6215 19.4225 85.6878 19.594C85.7542 19.7655 85.8706 19.913 86.0219 20.0175C86.1732 20.1221 86.3524 20.1787 86.5362 20.1801C86.7201 20.1815 86.9002 20.1276 87.053 20.0254L92.0474 16.6958L97.0417 20.0254C97.1979 20.1291 97.3822 20.1825 97.5697 20.1784C97.7572 20.1743 97.9389 20.1129 98.0905 20.0024C98.242 19.8919 98.3561 19.7377 98.4173 19.5604C98.4786 19.3832 98.4841 19.1914 98.4331 19.0109L96.7555 13.1406L100.916 9.39649C101.189 9.15067 101.289 8.76727 101.171 8.41964V8.41964Z" fill="#F3CD03"/>
<path d="M114.033 13.1374L112.666 19.0554C112.624 19.2346 112.637 19.4224 112.703 19.5943C112.769 19.7662 112.885 19.9141 113.037 20.0188C113.188 20.1235 113.368 20.1801 113.552 20.1812C113.736 20.1823 113.916 20.1278 114.069 20.0249L119.063 16.6954L124.057 20.0249C124.214 20.1287 124.398 20.1821 124.585 20.178C124.773 20.1739 124.955 20.1124 125.106 20.0019C125.258 19.8915 125.372 19.7372 125.433 19.56C125.494 19.3827 125.5 19.191 125.449 19.0105L123.771 13.1402L127.932 9.39603C128.065 9.27605 128.16 9.11963 128.205 8.94614C128.251 8.77264 128.244 8.58967 128.187 8.41986C128.129 8.25004 128.023 8.10083 127.881 7.99067C127.74 7.88051 127.569 7.81423 127.391 7.80004L122.161 7.38362L119.899 2.3746C119.826 2.21331 119.709 2.07635 119.561 1.98025C119.413 1.88415 119.24 1.83301 119.063 1.83301C118.886 1.83301 118.713 1.88415 118.565 1.98025C118.417 2.07635 118.3 2.21331 118.227 2.3746L115.965 7.38362L110.735 7.79913C110.56 7.81305 110.392 7.87729 110.252 7.98416C110.111 8.09104 110.005 8.23602 109.945 8.40178C109.885 8.56753 109.874 8.74703 109.914 8.9188C109.953 9.09057 110.041 9.24734 110.168 9.37035L114.033 13.1374V13.1374ZM116.65 9.16947C116.813 9.15658 116.971 9.09987 117.105 9.0053C117.239 8.91073 117.346 8.78179 117.413 8.63198L119.063 4.98047L120.713 8.63198C120.78 8.78179 120.887 8.91073 121.021 9.0053C121.155 9.09987 121.313 9.15658 121.476 9.16947L125.119 9.4584L122.119 12.1587C121.859 12.3936 121.755 12.7549 121.85 13.0925L123 17.1146L119.573 14.8297C119.423 14.7288 119.246 14.6749 119.064 14.6749C118.883 14.6749 118.706 14.7288 118.556 14.8297L114.975 17.2173L115.938 13.0475C115.973 12.8942 115.969 12.7343 115.924 12.5833C115.88 12.4323 115.797 12.2953 115.685 12.1853L112.898 9.46849L116.65 9.16947V9.16947Z" fill="#F3CD03"/>
</g>
<defs>
<clipPath id="clip0_3369_20">
<rect width="130.068" height="22" fill="white"/>
</clipPath>
</defs>
</svg>
